<svg 
          width="21.87744140625" 
          height="21.323244094848633" fill="none" 
          xmlns="http://www.w3.org/2000/svg">
          <path d="M 9.3017578125 1.4282227754592896 L 10.3857421875 0.3442383110523224 C 10.844726532697678 -0.11474609375 11.5869140625 -0.11474609375 12.041015625 0.3442383110523224 L 21.533203125 9.831543922424316 C 21.992187470197678 10.290528327226639 21.992187470197678 11.032715767621994 21.533203125 11.486817359924316 L 12.041015625 20.979005813598633 C 11.582031279802322 21.437990218400955 10.83984375 21.437990218400955 10.3857421875 20.979005813598633 L 9.3017578125 19.895021438598633 C 8.837890625 19.43115422129631 8.84765625 18.674318343400955 9.3212890625 18.220216751098633 L 15.205078125 12.614747047424316 L 1.171875 12.614747047424316 C 0.5224609375 12.614747047424316 0 12.092286169528961 0 11.442872047424316 L 0 9.880372047424316 C 0 9.230957925319672 0.5224609375 8.708497047424316 1.171875 8.708497047424316 L 15.205078125 8.708497047424316 L 9.3212890625 3.10302734375 C 8.8427734375 2.6489257514476776 8.833007782697678 1.892089992761612 9.3017578125 1.4282227754592896 Z" fill="rgb(240.12499898672104,129.66749489307404,0)"/>
        </svg>